<svg width="1200" height="430" viewBox="0 0 1200 430" fill="none" xmlns="http://www.w3.org/2000/svg" role="img" aria-labelledby="title desc">
  <title id="title">Vardhman Jain — Manufacturing, Quality, Vision and Automation</title>
  <desc id="desc">An engineering drawing inspired profile header for Vardhman Jain, a manufacturing process engineer and University of Waterloo Management Engineering graduate.</desc>
  <style>
    .sans { font-family:Inter,ui-sans-serif,-apple-system,BlinkMacSystemFont,"Segoe UI",sans-serif; }
    .mono { font-family:"SFMono-Regular",Consolas,"Liberation Mono",monospace; }
    .label { fill:#607087; font-size:14px; font-weight:600; letter-spacing:2.2px; }
    .detail { fill:#607087; font-size:13px; letter-spacing:.8px; }
    .topic { fill:#152235; font-size:15px; font-weight:650; letter-spacing:1.1px; }
  </style>
  <defs>
    <pattern id="grid" width="24" height="24" patternUnits="userSpaceOnUse"><path d="M24 0H0V24" stroke="#E8EDF4"/></pattern>
    <linearGradient id="accentRule"><stop stop-color="#0077B6"/><stop offset="1" stop-color="#0077B6" stop-opacity=".12"/></linearGradient>
  </defs>
  <rect width="1200" height="430" rx="18" fill="#F7F9FC"/>
  <rect x="18" y="18" width="1164" height="394" rx="12" fill="url(#grid)" stroke="#CBD5E1"/>
  <rect x="42" y="42" width="1116" height="346" rx="8" fill="#FFFFFF" fill-opacity=".94" stroke="#CBD5E1"/>
  <g stroke="#0077B6" stroke-width="1.5"><path d="M28 54H48M38 44V64"/><circle cx="38" cy="54" r="4"/><path d="M1152 376H1172M1162 366V386"/><circle cx="1162" cy="376" r="4"/></g>
  <text x="70" y="78" class="mono label">VJ / PROFILE SHEET</text>
  <text x="1130" y="78" text-anchor="end" class="mono detail">REV 01 · 2026</text>
  <rect x="70" y="94" width="1060" height="3" rx="1.5" fill="url(#accentRule)"/>
  <text x="70" y="166" class="sans" fill="#152235" font-size="54" font-weight="750" letter-spacing="-1.4">VARDHMAN JAIN</text>
  <text x="72" y="202" class="mono" fill="#0077B6" font-size="18" font-weight="650" letter-spacing="2.1">MANUFACTURING PROCESS ENGINEER</text>
  <text x="72" y="232" class="sans" fill="#607087" font-size="17">Management Engineering · University of Waterloo</text>
  <line x1="70" y1="270" x2="1130" y2="270" stroke="#CBD5E1"/>
  <g transform="translate(70 298)"><rect width="180" height="44" rx="6" fill="#DDF3FF" stroke="#0077B6" stroke-opacity=".42"/><text x="90" y="27" text-anchor="middle" class="mono topic">QUALITY SYSTEMS</text></g>
  <g transform="translate(266 298)"><rect width="180" height="44" rx="6" fill="#DDF3FF" stroke="#0077B6" stroke-opacity=".42"/><text x="90" y="27" text-anchor="middle" class="mono topic">MANUFACTURING</text></g>
  <g transform="translate(462 298)"><rect width="180" height="44" rx="6" fill="#DDF3FF" stroke="#0077B6" stroke-opacity=".42"/><text x="90" y="27" text-anchor="middle" class="mono topic">COMPUTER VISION</text></g>
  <g transform="translate(658 298)"><rect width="148" height="44" rx="6" fill="#DDF3FF" stroke="#0077B6" stroke-opacity=".42"/><text x="74" y="27" text-anchor="middle" class="mono topic">AUTOMATION</text></g>
  <g transform="translate(842 286)"><text y="10" class="mono label">CURRENT BUILD</text><circle cx="6" cy="38" r="5" fill="#0077B6"/><circle cx="6" cy="38" r="10" stroke="#0077B6" stroke-opacity=".28"/><text x="25" y="43" class="sans" fill="#152235" font-size="15" font-weight="650">VISION-GUIDED INSPECTION</text><text x="25" y="63" class="mono detail">INSPECT · LOCATE · PICK</text></g>
  <text x="70" y="370" class="mono detail">DRAWING NO. VJ-GH-001</text>
  <text x="1130" y="374" text-anchor="end" class="mono detail">GREATER TORONTO AREA · CANADA</text>
</svg>
